<svg viewBox="0 0 1024 1024" xmlns="http://www.w3.org/2000/svg">
    <path d="M586.88 554.176l83.84-84.352 29.92 30.112 161.664-162.624-167.68-168.64-161.664 162.624 5.984 12.032-83.84 84.352-95.808-102.4L682.656 0 1024 343.36 700.64 668.576l-113.792-114.432z m-161.696-96.384l-83.84 84.32-12-12.032-161.664 162.624 167.68 168.64 161.664-162.624-29.92-30.08 83.84-84.352 113.76 114.432L341.344 1024 0 686.688l323.36-325.28 101.792 96.384z m197.6-156.608l83.84 84.32-323.36 325.28-83.84-84.352L622.784 301.184z"/>
</svg>