<svg viewBox="0 0 1024 1024" xmlns="http://www.w3.org/2000/svg">
    <path d="M154.432 521.216l-25.92-199.424a59.584 59.584 0 0 1 68.288-66.624l193.92 30.208c12.544 1.92 24.064 7.808 33.024 16.768l323.456 323.456a59.584 59.584 0 0 1 0 84.352l-168.576 168.576a59.584 59.584 0 0 1-84.352 0L171.392 555.648a59.584 59.584 0 0 1-16.96-34.432z m146.56-88.96a59.584 59.584 0 1 0-84.288-84.288 59.584 59.584 0 0 0 84.288 84.352z m-43.328-216.32l-2.688-20.608a59.584 59.584 0 0 1 68.288-66.56l193.92 30.208c12.544 1.92 24.064 7.808 33.024 16.704L873.664 499.2a59.584 59.584 0 0 1 0 84.352l-84.288 84.288a59.584 59.584 0 0 0 0-84.288L465.92 259.968a59.584 59.584 0 0 0-32.96-16.704l-175.36-27.328z"/>
</svg>